<svg id="svg" version="1.1" width="500" height="500" xmlns="http://www.w3.org/2000/svg" xmlns:xlink="http://www.w3.org/1999/xlink" style="display: block;"><g id="svgg"><path id="path0" d="M79.200 0.800 C 79.200 1.240,79.740 1.600,80.400 1.600 C 81.060 1.600,81.600 1.240,81.600 0.800 C 81.600 0.360,81.060 0.000,80.400 0.000 C 79.740 0.000,79.200 0.360,79.200 0.800 M51.263 19.057 C 51.228 19.639,50.660 20.654,50.000 21.314 C 49.340 21.974,48.800 22.897,48.800 23.365 C 48.800 23.833,49.549 23.264,50.464 22.100 C 51.379 20.937,51.948 19.538,51.727 18.992 C 51.425 18.245,51.311 18.261,51.263 19.057 M41.333 38.133 C 40.135 39.331,40.746 41.041,42.000 40.000 C 42.660 39.452,43.200 38.688,43.200 38.302 C 43.200 37.474,42.093 37.374,41.333 38.133 M312.950 258.450 C 313.143 259.028,313.773 259.657,314.350 259.850 C 314.950 260.050,315.250 259.750,315.050 259.150 C 314.858 258.572,314.228 257.943,313.650 257.750 C 313.050 257.550,312.750 257.850,312.950 258.450 M332.000 285.435 C 332.000 285.858,332.582 286.687,333.292 287.277 C 334.410 288.204,334.545 288.146,334.292 286.841 C 333.991 285.286,332.000 284.065,332.000 285.435 M196.000 302.236 C 196.000 302.723,196.477 303.408,197.060 303.760 C 197.644 304.112,198.352 305.030,198.635 305.800 C 198.918 306.570,199.791 307.158,200.575 307.107 C 201.910 307.020,201.912 306.991,200.600 306.649 C 199.830 306.447,199.200 305.825,199.200 305.265 C 199.200 304.706,198.480 303.596,197.600 302.800 C 196.720 302.004,196.000 301.750,196.000 302.236 M201.600 310.425 C 201.600 310.879,202.140 311.457,202.800 311.711 C 203.460 311.964,204.000 312.853,204.000 313.686 C 204.000 314.519,204.326 315.200,204.725 315.200 C 205.133 315.200,205.074 313.975,204.591 312.400 C 203.814 309.869,201.600 308.407,201.600 310.425 M215.711 330.800 C 215.964 331.460,216.717 332.000,217.384 332.000 C 218.370 332.000,218.411 331.777,217.600 330.800 C 217.052 330.140,216.299 329.600,215.927 329.600 C 215.555 329.600,215.457 330.140,215.711 330.800 M356.800 332.702 C 356.800 333.088,357.340 333.852,358.000 334.400 C 358.660 334.948,359.261 336.882,359.334 338.698 C 359.468 341.964,359.472 341.969,359.774 339.155 C 360.110 336.016,358.901 332.000,357.620 332.000 C 357.169 332.000,356.800 332.316,356.800 332.702 M221.642 338.479 C 222.590 340.250,224.000 340.498,224.000 338.893 C 224.000 338.285,223.286 337.600,222.414 337.372 C 221.065 337.019,220.949 337.184,221.642 338.479 M359.418 347.200 C 359.418 349.180,359.574 349.990,359.765 349.000 C 359.955 348.010,359.955 346.390,359.765 345.400 C 359.574 344.410,359.418 345.220,359.418 347.200 M356.800 352.498 C 356.800 353.561,357.017 353.616,358.000 352.800 C 358.660 352.252,359.200 351.668,359.200 351.502 C 359.200 351.336,358.660 351.200,358.000 351.200 C 357.340 351.200,356.800 351.784,356.800 352.498 M234.968 357.600 C 235.198 358.480,235.881 359.200,236.485 359.200 C 237.327 359.200,237.263 358.825,236.214 357.600 C 235.461 356.720,234.778 356.000,234.697 356.000 C 234.616 356.000,234.738 356.720,234.968 357.600 M354.885 363.667 C 354.586 364.446,354.765 364.812,355.349 364.617 C 356.545 364.218,357.204 362.400,356.152 362.400 C 355.723 362.400,355.152 362.970,354.885 363.667 M240.800 366.314 C 240.800 366.707,241.340 367.236,242.000 367.489 C 242.731 367.770,243.200 367.491,243.200 366.775 C 243.200 366.129,242.660 365.600,242.000 365.600 C 241.340 365.600,240.800 365.921,240.800 366.314 M248.800 377.969 C 248.800 378.646,249.340 379.200,250.000 379.200 C 250.660 379.200,251.228 379.830,251.263 380.600 C 251.305 381.531,251.468 381.645,251.750 380.940 C 251.983 380.357,251.414 379.173,250.487 378.309 C 249.116 377.032,248.800 376.968,248.800 377.969 M341.400 384.551 C 340.630 384.753,340.000 385.251,340.000 385.659 C 340.000 386.789,341.285 386.543,342.400 385.200 C 342.948 384.540,343.262 384.042,343.098 384.093 C 342.934 384.144,342.170 384.350,341.400 384.551 M329.800 393.997 C 328.329 395.668,328.581 396.174,330.400 395.200 C 331.280 394.729,332.000 393.996,332.000 393.572 C 332.000 392.471,330.968 392.671,329.800 393.997 " stroke="none" fill="#000000" fill-rule="evenodd"></path><path id="path1" d="M109.600 0.785 C 109.600 1.216,110.590 1.792,111.800 2.065 C 117.813 3.419,119.974 4.111,120.413 4.822 C 120.678 5.250,121.526 5.600,122.298 5.600 C 124.382 5.600,134.300 12.431,138.213 16.561 C 143.121 21.741,147.200 26.835,147.200 27.784 C 147.200 28.235,147.761 29.070,148.446 29.638 C 154.161 34.382,157.647 60.289,154.091 71.600 C 147.305 93.190,136.696 104.013,114.000 112.500 C 103.051 116.595,82.152 113.532,69.650 106.000 C 60.365 100.407,50.684 89.573,46.920 80.564 C 46.239 78.934,45.332 77.600,44.904 77.600 C 44.477 77.600,43.890 76.520,43.600 75.200 C 42.813 71.616,39.583 71.714,40.300 75.300 C 40.575 76.675,40.800 139.315,40.800 214.500 C 40.800 335.478,40.938 351.200,42.000 351.200 C 42.950 351.200,43.200 352.345,43.200 356.702 C 43.200 360.395,43.562 362.504,44.300 363.117 C 44.905 363.619,45.630 365.463,45.910 367.215 C 46.239 369.273,46.840 370.400,47.609 370.400 C 48.325 370.400,48.800 371.149,48.800 372.278 C 48.800 373.310,49.520 374.985,50.400 376.000 C 51.280 377.015,52.000 378.150,52.000 378.522 C 52.000 378.895,52.540 379.200,53.200 379.200 C 53.860 379.200,54.400 379.740,54.400 380.400 C 54.400 381.060,54.940 381.600,55.600 381.600 C 56.260 381.600,56.800 382.009,56.800 382.508 C 56.800 383.576,60.539 387.200,61.641 387.200 C 62.059 387.200,62.400 387.774,62.400 388.475 C 62.400 389.176,63.120 389.938,64.000 390.168 C 64.880 390.398,65.600 391.085,65.600 391.693 C 65.600 392.312,66.404 392.800,67.423 392.800 C 68.426 392.800,69.766 393.520,70.400 394.400 C 71.034 395.280,72.150 396.000,72.879 396.000 C 73.608 396.000,74.652 396.540,75.200 397.200 C 75.772 397.889,77.517 398.400,79.298 398.400 C 81.004 398.400,82.400 398.760,82.400 399.200 C 82.400 399.711,89.200 400.000,101.200 400.000 C 113.200 400.000,120.000 399.711,120.000 399.200 C 120.000 398.760,121.440 398.400,123.200 398.400 C 125.511 398.400,126.400 398.067,126.400 397.200 C 126.400 396.392,127.208 396.000,128.875 396.000 C 130.677 396.000,131.464 395.565,131.768 394.400 C 132.036 393.377,132.859 392.800,134.052 392.800 C 136.015 392.800,140.000 389.657,140.000 388.108 C 140.000 387.609,140.720 387.200,141.600 387.200 C 142.480 387.200,143.200 386.699,143.200 386.086 C 143.200 385.473,143.740 384.764,144.400 384.511 C 145.060 384.257,145.600 383.499,145.600 382.825 C 145.600 382.151,146.072 381.600,146.650 381.600 C 148.084 381.600,151.200 377.240,151.200 375.232 C 151.200 374.335,151.701 373.600,152.314 373.600 C 153.538 373.600,154.400 371.919,154.400 369.535 C 154.400 368.691,154.940 368.000,155.600 368.000 C 156.447 368.000,156.800 367.143,156.800 365.088 C 156.800 363.238,157.311 361.803,158.200 361.153 C 159.492 360.209,159.617 357.318,159.823 323.665 L 160.047 287.200 174.049 287.200 C 190.131 287.200,191.908 285.874,184.772 279.200 C 184.537 278.980,182.967 276.640,181.283 274.000 C 179.599 271.360,177.602 268.300,176.846 267.200 C 176.089 266.100,174.109 263.220,172.444 260.800 C 170.780 258.380,168.984 256.040,168.453 255.600 C 167.139 254.510,161.601 244.947,161.595 243.757 C 161.592 243.231,161.090 241.842,160.480 240.672 C 159.869 239.501,158.563 234.551,157.579 229.672 L 155.789 220.800 157.581 211.800 C 158.566 206.850,159.694 202.458,160.086 202.040 C 160.479 201.622,160.800 200.563,160.800 199.687 C 160.800 195.412,170.836 182.592,180.802 174.137 C 198.878 158.800,236.028 161.595,253.200 179.583 C 257.768 184.368,275.414 208.826,288.709 228.800 C 291.784 233.420,295.421 238.509,296.792 240.109 C 298.162 241.708,300.324 244.588,301.597 246.509 C 305.261 252.038,306.018 252.764,308.674 253.295 C 310.560 253.672,311.298 253.476,311.673 252.498 C 311.947 251.784,312.476 251.200,312.849 251.200 C 313.778 251.200,317.600 247.309,317.600 246.364 C 317.600 245.944,318.099 245.600,318.708 245.600 C 319.317 245.600,320.353 244.780,321.009 243.779 C 321.666 242.777,323.525 240.635,325.141 239.019 C 326.758 237.402,328.094 235.890,328.110 235.658 C 328.253 233.651,329.202 232.081,330.474 231.749 C 331.313 231.529,332.000 230.776,332.000 230.075 C 332.000 229.374,332.540 228.800,333.200 228.800 C 333.867 228.800,334.400 228.089,334.400 227.200 C 334.400 226.320,334.768 225.600,335.217 225.600 C 335.667 225.600,336.469 224.610,337.000 223.400 C 337.532 222.190,338.424 220.912,338.983 220.560 C 339.542 220.208,340.000 218.900,340.000 217.654 C 340.000 216.059,340.475 215.262,341.600 214.968 C 342.687 214.684,343.200 213.877,343.200 212.450 C 343.200 211.295,343.740 210.143,344.400 209.889 C 345.129 209.610,345.600 208.400,345.600 206.808 C 345.600 204.859,346.011 204.079,347.200 203.768 C 348.365 203.464,348.800 202.677,348.800 200.875 C 348.800 199.208,349.192 198.400,350.000 198.400 C 350.867 198.400,351.200 197.511,351.200 195.200 C 351.200 193.067,351.733 191.467,352.800 190.400 C 353.926 189.274,354.400 187.733,354.400 185.200 C 354.400 182.533,354.711 181.600,355.600 181.600 C 356.552 181.600,356.800 180.444,356.800 176.000 C 356.800 172.920,357.143 170.400,357.562 170.400 C 359.347 170.400,359.991 163.391,359.996 143.912 C 360.000 121.486,359.587 116.000,357.891 116.000 C 357.073 116.000,356.800 114.593,356.800 110.375 C 356.800 106.113,356.509 104.638,355.600 104.289 C 354.823 103.991,354.400 102.751,354.400 100.766 C 354.400 97.022,353.090 93.326,352.001 93.999 C 351.516 94.299,351.200 93.212,351.200 91.247 C 351.200 88.894,350.870 88.000,350.000 88.000 C 349.162 88.000,348.800 87.156,348.800 85.200 C 348.800 83.467,348.190 81.790,347.200 80.800 C 346.320 79.920,345.600 78.289,345.600 77.175 C 345.600 76.061,345.060 74.943,344.400 74.689 C 343.740 74.436,343.200 73.795,343.200 73.265 C 343.200 72.735,342.480 71.529,341.600 70.584 C 340.720 69.640,340.000 68.132,340.000 67.233 C 340.000 66.315,339.475 65.600,338.800 65.600 C 338.131 65.600,337.600 64.888,337.600 63.992 C 337.600 63.108,336.880 61.768,336.000 61.014 C 335.120 60.261,334.400 59.173,334.400 58.597 C 334.400 58.021,333.860 57.343,333.200 57.089 C 332.540 56.836,332.000 56.127,332.000 55.514 C 332.000 54.901,331.280 54.400,330.400 54.400 C 329.169 54.400,328.800 53.867,328.800 52.086 C 328.800 50.766,328.284 49.573,327.600 49.311 C 326.940 49.057,326.400 48.341,326.400 47.718 C 326.400 47.096,325.680 46.398,324.800 46.168 C 323.920 45.938,323.200 45.176,323.200 44.475 C 323.200 43.774,322.823 43.200,322.362 43.200 C 321.386 43.200,317.600 39.290,317.600 38.283 C 317.600 37.907,317.060 37.600,316.400 37.600 C 315.740 37.600,315.200 37.060,315.200 36.400 C 315.200 35.733,314.489 35.200,313.600 35.200 C 312.720 35.200,311.994 34.750,311.986 34.200 C 311.965 32.694,308.688 29.924,306.200 29.312 C 304.990 29.013,304.000 28.236,304.000 27.585 C 304.000 26.933,303.499 26.400,302.886 26.400 C 302.273 26.400,301.564 25.860,301.311 25.200 C 301.057 24.540,300.299 24.000,299.625 24.000 C 298.951 24.000,298.400 23.499,298.400 22.886 C 298.400 21.662,296.719 20.800,294.335 20.800 C 293.491 20.800,292.800 20.260,292.800 19.600 C 292.800 18.940,292.148 18.400,291.351 18.400 C 290.554 18.400,289.129 17.680,288.184 16.800 C 287.240 15.920,286.136 15.200,285.731 15.200 C 285.327 15.200,284.548 14.660,284.000 14.000 C 283.452 13.340,281.968 12.800,280.702 12.800 C 279.277 12.800,278.400 12.379,278.400 11.695 C 278.400 11.055,276.905 10.213,274.847 9.695 C 272.894 9.203,271.072 8.441,270.800 8.000 C 270.528 7.560,269.067 7.200,267.553 7.200 C 265.792 7.200,264.800 6.816,264.800 6.133 C 264.800 5.547,264.350 5.001,263.800 4.921 C 263.250 4.841,261.284 4.564,259.431 4.306 C 257.577 4.049,255.643 3.334,255.133 2.719 C 254.530 1.993,252.554 1.600,249.502 1.600 C 246.901 1.600,244.800 1.243,244.800 0.800 C 244.800 0.273,221.733 0.000,177.200 0.000 C 133.542 0.000,109.600 0.278,109.600 0.785 " stroke="none" fill="#7dc8a2" fill-rule="evenodd"></path><path id="path2" d="M345.600 205.298 C 345.600 206.361,345.817 206.416,346.800 205.600 C 347.460 205.052,348.000 204.468,348.000 204.302 C 348.000 204.136,347.460 204.000,346.800 204.000 C 346.140 204.000,345.600 204.584,345.600 205.298 M40.800 351.502 C 40.800 351.668,41.340 352.252,42.000 352.800 C 42.983 353.616,43.200 353.561,43.200 352.498 C 43.200 351.784,42.660 351.200,42.000 351.200 C 41.340 351.200,40.800 351.336,40.800 351.502 " stroke="none" fill="#00ffff" fill-rule="evenodd"></path><path id="path3" d="M40.391 210.800 C 40.391 285.160,40.485 315.462,40.600 278.137 C 40.715 240.812,40.715 179.972,40.600 142.937 C 40.485 105.902,40.391 136.440,40.391 210.800 " stroke="none" fill="#80ffff" fill-rule="evenodd"></path><path id="path4" d="M81.600 0.800 C 81.600 1.240,79.969 1.600,77.975 1.600 C 75.491 1.600,74.205 1.978,73.889 2.800 C 73.636 3.460,72.747 4.000,71.914 4.000 C 71.081 4.000,69.639 4.761,68.710 5.690 C 67.780 6.620,66.190 7.430,65.177 7.490 C 64.164 7.551,63.460 7.726,63.613 7.880 C 64.031 8.298,59.261 12.800,58.401 12.800 C 57.991 12.800,57.266 13.530,56.788 14.422 C 56.310 15.315,55.578 15.833,55.160 15.575 C 54.742 15.317,54.400 15.847,54.400 16.753 C 54.400 17.659,53.945 18.400,53.390 18.400 C 52.834 18.400,52.011 19.210,51.560 20.200 C 51.110 21.190,50.347 21.924,49.865 21.831 C 49.383 21.739,49.003 22.099,49.020 22.631 C 49.108 25.309,48.659 26.337,47.200 26.800 C 46.074 27.157,45.600 28.010,45.600 29.679 C 45.600 31.049,45.093 32.245,44.400 32.511 C 43.618 32.811,43.200 34.054,43.200 36.079 C 43.200 38.320,42.754 39.465,41.600 40.186 C 39.162 41.708,39.102 72.800,41.536 72.800 C 42.593 72.800,43.237 73.549,43.600 75.200 C 43.890 76.520,44.477 77.600,44.904 77.600 C 45.332 77.600,46.239 78.934,46.920 80.564 C 50.684 89.573,60.365 100.407,69.650 106.000 C 82.152 113.532,103.051 116.595,114.000 112.500 C 136.696 104.013,147.305 93.190,154.091 71.600 C 157.647 60.289,154.161 34.382,148.446 29.638 C 147.761 29.070,147.200 28.235,147.200 27.784 C 147.200 26.835,143.121 21.741,138.213 16.561 C 134.468 12.608,124.435 5.615,122.451 5.575 C 121.763 5.561,120.521 5.035,119.692 4.407 C 118.863 3.779,116.595 3.027,114.652 2.736 C 112.710 2.445,110.624 1.710,110.018 1.103 C 108.665 -0.249,81.600 -0.538,81.600 0.800 M198.282 165.680 C 192.703 167.309,183.736 171.648,180.802 174.137 C 170.836 182.592,160.800 195.412,160.800 199.687 C 160.800 200.563,160.479 201.622,160.086 202.040 C 159.694 202.458,158.566 206.850,157.581 211.800 L 155.789 220.800 157.579 229.672 C 158.563 234.551,159.869 239.501,160.480 240.672 C 161.090 241.842,161.592 243.231,161.595 243.757 C 161.601 244.947,167.139 254.510,168.453 255.600 C 168.984 256.040,170.780 258.380,172.444 260.800 C 174.109 263.220,176.089 266.100,176.846 267.200 C 177.602 268.300,179.599 271.360,181.283 274.000 C 182.967 276.640,184.537 278.980,184.772 279.200 C 187.478 281.731,188.907 285.106,187.994 286.811 C 186.912 288.832,187.460 290.400,189.247 290.400 C 190.299 290.400,190.712 291.543,190.616 294.191 C 190.597 294.737,190.901 294.985,191.292 294.743 C 191.683 294.502,192.353 295.225,192.782 296.352 C 193.210 297.478,194.109 298.400,194.780 298.400 C 195.451 298.400,196.000 299.064,196.000 299.876 C 196.000 300.688,196.720 302.004,197.600 302.800 C 198.480 303.596,199.200 304.732,199.200 305.324 C 199.200 305.916,199.740 306.400,200.400 306.400 C 201.067 306.400,201.600 307.111,201.600 308.000 C 201.600 308.880,202.111 309.600,202.736 309.600 C 203.361 309.600,204.115 310.704,204.412 312.054 C 204.708 313.404,205.457 314.702,206.075 314.940 C 206.694 315.177,207.200 315.693,207.200 316.086 C 207.200 316.479,207.948 317.548,208.862 318.462 C 209.776 319.376,210.334 320.617,210.103 321.221 C 209.861 321.851,210.345 322.529,211.241 322.813 C 212.098 323.085,212.800 323.835,212.800 324.479 C 212.800 325.123,213.340 325.857,214.000 326.111 C 214.660 326.364,215.200 327.166,215.200 327.893 C 215.200 328.620,215.920 329.665,216.800 330.214 C 217.680 330.764,218.400 331.931,218.400 332.807 C 218.400 333.690,218.935 334.400,219.600 334.400 C 220.260 334.400,220.800 334.974,220.800 335.675 C 220.800 336.376,221.520 337.138,222.400 337.368 C 223.431 337.638,224.000 338.459,224.000 339.679 C 224.000 340.759,225.202 342.809,226.800 344.454 C 228.340 346.040,229.600 347.766,229.600 348.290 C 229.600 348.815,230.590 350.335,231.800 351.668 C 233.010 353.002,234.511 355.062,235.135 356.246 C 235.760 357.431,236.570 358.400,236.935 358.400 C 237.301 358.400,237.600 358.914,237.600 359.543 C 237.600 360.171,238.070 361.161,238.645 361.743 C 239.219 362.324,239.928 363.430,240.220 364.200 C 240.511 364.970,241.301 365.600,241.975 365.600 C 242.742 365.600,243.200 366.333,243.200 367.560 C 243.200 368.638,243.677 369.808,244.260 370.160 C 244.844 370.512,245.552 371.430,245.835 372.200 C 246.118 372.970,246.901 373.600,247.575 373.600 C 248.269 373.600,248.800 374.297,248.800 375.208 C 248.800 376.092,249.520 377.432,250.400 378.186 C 251.280 378.939,252.000 380.016,252.000 380.578 C 252.000 381.140,252.540 381.600,253.200 381.600 C 253.860 381.600,254.400 382.009,254.400 382.508 C 254.400 383.576,258.139 387.200,259.241 387.200 C 259.659 387.200,260.000 387.752,260.000 388.426 C 260.000 389.100,260.810 389.977,261.800 390.375 C 262.790 390.773,263.240 391.127,262.800 391.162 C 261.309 391.279,264.388 392.775,266.146 392.788 C 267.183 392.795,268.099 393.450,268.400 394.400 C 268.750 395.503,269.610 396.000,271.168 396.000 C 272.440 396.000,273.630 396.525,273.889 397.200 C 274.178 397.953,275.402 398.400,277.175 398.400 C 278.729 398.400,280.000 398.760,280.000 399.200 C 280.000 399.711,286.800 400.000,298.800 400.000 C 310.800 400.000,317.600 399.711,317.600 399.200 C 317.600 398.760,318.996 398.400,320.702 398.400 C 322.483 398.400,324.228 397.889,324.800 397.200 C 325.348 396.540,326.392 396.000,327.121 396.000 C 327.850 396.000,328.966 395.280,329.600 394.400 C 330.234 393.520,331.574 392.800,332.577 392.800 C 333.664 392.800,334.400 392.316,334.400 391.600 C 334.400 390.940,334.974 390.400,335.675 390.400 C 336.376 390.400,337.138 389.680,337.368 388.800 C 337.598 387.920,338.285 387.200,338.893 387.200 C 339.502 387.200,340.000 386.660,340.000 386.000 C 340.000 385.340,340.574 384.800,341.275 384.800 C 341.976 384.800,342.738 384.080,342.968 383.200 C 343.198 382.320,343.885 381.600,344.493 381.600 C 345.102 381.600,345.600 381.060,345.600 380.400 C 345.600 379.740,346.151 379.200,346.825 379.200 C 347.499 379.200,348.289 378.570,348.580 377.800 C 348.872 377.030,349.581 375.924,350.155 375.343 C 350.730 374.761,351.200 373.411,351.200 372.343 C 351.200 371.156,351.663 370.400,352.391 370.400 C 353.164 370.400,353.763 369.261,354.101 367.146 C 354.388 365.357,355.112 363.402,355.711 362.803 C 356.409 362.106,356.800 359.826,356.800 356.457 C 356.800 352.317,357.055 351.200,358.000 351.200 C 360.002 351.200,359.934 336.605,357.921 334.337 C 357.222 333.550,356.800 331.250,356.800 328.235 C 356.800 325.071,356.414 323.075,355.684 322.469 C 355.070 321.960,354.340 320.331,354.062 318.849 C 353.784 317.367,353.026 315.951,352.378 315.702 C 351.730 315.454,351.200 314.357,351.200 313.265 C 351.200 312.173,350.723 310.992,350.140 310.640 C 349.556 310.288,348.848 309.370,348.565 308.600 C 348.282 307.830,347.499 307.200,346.825 307.200 C 346.007 307.200,345.600 306.431,345.600 304.886 C 345.600 303.566,345.084 302.373,344.400 302.111 C 343.740 301.857,343.200 301.123,343.200 300.479 C 343.200 299.835,342.480 299.079,341.600 298.800 C 340.720 298.521,340.000 297.618,340.000 296.793 C 340.000 295.969,339.618 295.058,339.151 294.770 C 338.684 294.481,337.972 293.380,337.570 292.322 C 337.168 291.265,336.376 290.400,335.810 290.400 C 334.787 290.400,333.749 288.831,331.969 284.600 C 331.460 283.390,330.539 282.400,329.922 282.400 C 329.305 282.400,328.800 281.680,328.800 280.800 C 328.800 279.911,328.267 279.200,327.600 279.200 C 326.849 279.200,326.400 278.442,326.400 277.175 C 326.400 276.061,325.874 274.948,325.230 274.701 C 324.587 274.454,323.843 273.565,323.577 272.726 C 323.310 271.887,322.576 271.200,321.946 271.200 C 321.316 271.200,320.800 270.506,320.800 269.657 C 320.800 268.809,320.260 267.574,319.600 266.914 C 318.940 266.254,318.400 265.341,318.400 264.885 C 318.400 264.429,317.680 263.671,316.800 263.200 C 315.920 262.729,315.200 261.816,315.200 261.172 C 315.200 260.527,314.845 260.000,314.411 260.000 C 313.977 260.000,313.121 258.802,312.509 257.338 C 311.780 255.593,310.467 254.297,308.698 253.575 C 305.725 252.363,304.994 251.635,301.597 246.509 C 300.324 244.588,298.162 241.708,296.792 240.109 C 295.421 238.509,291.784 233.420,288.709 228.800 C 275.414 208.826,257.768 184.368,253.200 179.583 C 241.136 166.946,215.860 160.547,198.282 165.680 " stroke="none" fill="#764d80" fill-rule="evenodd"></path></g></svg>